<svg xmlns="http://www.w3.org/2000/svg" viewBox="0 0 64 64" fill="none">
  <rect width="64" height="64" rx="14" fill="#059669"/>
  <rect x="4" y="4" width="56" height="56" rx="11" fill="#10b981"/>
  <!-- Chain link being snipped -->
  <path d="M20 28 C20 23 24 20 28 20 L30 20 C30 20 28 22 28 24 C28 26 30 28 32 28 L32 36 C32 36 30 34 28 34 C26 34 24 36 24 38 C24 40 26 42 28 42 L36 42 C40 42 44 39 44 35 L44 28" stroke="white" stroke-width="4" stroke-linecap="round" fill="none"/>
  <!-- Scissors -->
  <line x1="38" y1="18" x2="48" y2="28" stroke="#fbbf24" stroke-width="3" stroke-linecap="round"/>
  <line x1="48" y1="18" x2="38" y2="28" stroke="#fbbf24" stroke-width="3" stroke-linecap="round"/>
  <circle cx="36" cy="16" r="2.5" fill="#fbbf24"/>
  <circle cx="50" cy="16" r="2.5" fill="#fbbf24"/>
  <!-- Spark at cut -->
  <circle cx="42" cy="23" r="2" fill="white" opacity="0.9"/>
  <circle cx="44" cy="21" r="1" fill="white" opacity="0.6"/>
</svg>
